<svg id="Layer_1" xmlns="http://www.w3.org/2000/svg" viewBox="0 0 436.8 90.3"><style>.st0{fill:#636466;} .st1{fill:#723694;} .st2{fill:#783C97;} .st3{fill:#D1B9D9;} .st4{fill:#CDB1D5;} .st5{fill:#C29FCA;} .st6{fill:#BF9CC9;} .st7{fill:#B489BE;} .st8{fill:#B184BB;} .st9{fill:#B48CC0;} .st10{fill:#A775B3;} .st11{fill:#A471B0;} .st12{fill:#A370B0;} .st13{fill:#A36FB0;} .st14{fill:#AB81BA;} .st15{fill:#A272B1;} .st16{fill:#9C67AB;} .st17{fill:#9962A9;} .st18{fill:#9860A8;} .st19{fill:#975FA7;} .st20{fill:#975EA6;} .st21{fill:#9A6AAD;} .st22{fill:#9763A9;} .st23{fill:#935CA6;} .st24{fill:#8F57A3;} .st25{fill:#8E55A2;} .st26{fill:#8E53A1;} .st27{fill:#8D52A1;} .st28{fill:#8C51A0;} .st29{fill:#8C50A0;} .st30{fill:#925CA6;} .st31{fill:#8D54A2;} .st32{fill:#894D9E;} .st33{fill:#884C9E;} .st34{fill:#874A9D;} .st35{fill:#85489C;} .st36{fill:#86479C;} .st37{fill:#80439A;} .st38{fill:#7D4098;} .st39{fill:#753996;}</style><path class="st0" d="M242.3 26.2h5.1v-8.7h-5.1v8.7zm0 42.5h5.1V30.8h-5.1v37.9zm-13.7-19.1c0 8.3-6.7 15.1-15 15.1s-15-6.8-15-15.1c0-8.2 6.9-14.7 14.9-14.7 8.1 0 15.1 6.3 15.1 14.7m5-32.1h-5.1v19.9c-3.1-4.9-9-7.4-14.7-7.4-11 0-20.4 8.4-20.4 19.7 0 5.5 2.3 10.5 4.2 12.1 5.3 5.6 10.4 7.8 15.9 7.8 6.6 0 11.5-2.5 15.3-7.8v6.9h4.8V17.5zM181 68.7h5.1V17.5H181v51.2zm-26.9-33.8c3.7 0 7.4 1.6 10.1 4.2 3 2.9 4.4 6.3 4.4 10.5 0 8.2-6.1 15.2-14.5 15.2-8.1 0-14.7-6.6-14.7-14.7-.1-8.4 6.3-15.2 14.7-15.2m0-4.9c-11.1 0-19.9 9-19.9 20 0 10.9 9.1 19.6 19.9 19.6 10.9 0 19.7-9.3 19.7-20.1-.1-10.5-9.2-19.5-19.7-19.5M103 68.7h5.1V45.3h20.1v-4.6h-20.1V22.1h20.8v-4.6h-26v51.2z"/><path class="st1" d="M402.6 46.9c1.2-7 7.5-12 14.7-12 7 0 13.2 5.3 14.5 12h-29.2zm34.2 4.7c-.1-5.5-.9-9.9-4.4-14.3-3.8-4.6-9.3-7.3-15.2-7.3-11 0-19.7 8.8-19.7 19.8 0 11.1 8.8 19.8 19.9 19.8 8 0 15.8-5.6 18.4-13.2h-5.3c-2.3 5.2-8 8.3-13.6 8.3-7 0-14-5.9-14.3-13.1h34.2zm-57 17.1h5.1V35.4h8.8v-4.6h-8.8V17.5h-5.1v13.3h-7.9v4.6h7.9v33.3zM347 34.9c8.4 0 14.8 6.7 14.8 15.1 0 7.9-6.8 14.7-14.7 14.7-8.1 0-15.3-6.4-15.3-14.8s6.8-15 15.2-15m19.7-4.1h-4.9V38c-2.8-5.4-8.9-8-14.8-8-5.3 0-10.6 1.9-16.3 8-1.4 1.2-3.9 6.4-3.9 11.5 0 5.7 2.4 10.5 3.7 12 4.8 5.5 11 8 16.7 8 6 0 11.8-2.7 14.7-8v7.1h4.9V30.8z"/><path class="st0" d="M415.9 24.7h1.9v-8.4h1.9v-1.8H414v1.8h1.9zM422.8 24.7h1.9V17l2.6 7.7h1.6l2.7-7.7v7.7h1.9V14.5h-2.6l-2.8 7.8-2.7-7.8h-2.6z"/><path class="st2" d="M330 79.6c.1.2.2.3.2.6 0 .6-.4 1.3-1.1 1.9-.8.7-1.5 1-2.2 1-.3 0-.7-.3-1.2-.8-8.1-8.7-12.1-23.7-12.1-45.1 0-3.1.1-6.7.3-10.8-4.3 9.6-8.3 17-11.7 22.2-6.4 9.7-12.4 14.6-18.1 14.6-3.3 0-7.9-2.9-13.6-8.8-2.3-2.3-6-6.7-11.2-13.2l-.1 2.4c0 2.6.2 6.3.6 11.1.5 5 .8 8.7.8 11.1 0 .7-.3 1.4-.9 2.1-.6.6-1.3 1.1-2 1.3l-1.4-.9c-1-10.3-1.5-17.9-1.5-23 0-2.1-.1-4.7-.4-7.8s-.4-5.1-.4-5.5c0-1.3 0-2 .1-2.2.1-.5.6-.8 1.3-.8.6 0 3 2.5 7.1 7.6 5.4 6.7 9.5 11.5 12.2 14.3 5 5.1 8.7 7.7 11.2 7.7 4.2 0 8.8-4.1 13.8-12.3 2.5-4.2 6.3-11.8 11.2-22.9 3.7-8.2 6.1-12.3 7.2-12.3.7 0 1 .5 1 1.4 0 2.4-.2 6.2-.6 11.1-.4 5-.6 8.7-.6 11.3 0 7.6.7 14.8 2.1 21.5 2.1 9.7 5.4 17.4 10 23.2"/><path class="st3" d="M1.4 42.9s-3.3 3.5.2 6.8l41.3 39.2s3.5 3.3 6.8-.2l39.2-41.3s3.3-3.5-.2-6.8L47.4 1.4s-3.5-3.3-6.8.2L1.4 42.9"/><path class="st4" d="M50.6 3.1c-.4 0-.8.1-1.2.2l4.8 4.6h.1c.6-.3 1.2-.5 1.8-.6l-1.6-2.2c-.1 0-1.6-2-3.9-2"/><path class="st5" d="M49.3 3.2c-.5.2-1.1.4-1.7.9L26.5 20c.3 0 .6-.1.7-.1h.2l2.1.1L54.2 7.8l-4.9-4.6"/><path class="st4" d="M87.1 49.3l-4.6 4.8v.1c.3.6.5 1.2.6 1.8l2.1-1.6s2.8-2.1 1.9-5.1"/><path class="st5" d="M70.4 26.5c.1.5 0 .9 0 .9l-.1 2.1 12.2 24.7 4.6-4.8c-.2-.5-.4-1.1-.9-1.7L70.4 26.5"/><path class="st4" d="M7.2 34.3l-2.1 1.6S2.3 38 3.2 41l4.6-4.8v-.1c-.3-.7-.5-1.2-.6-1.8"/><path class="st5" d="M7.8 36.1L3.2 41c.2.5.4 1.1.9 1.7L20 63.9c-.1-.5 0-.9 0-.9l.1-2.1L7.8 36.1"/><path class="st4" d="M36.1 82.5c-.7.3-1.3.5-1.8.6l1.6 2.1s1.5 2 3.9 2c.4 0 .8-.1 1.2-.2l-4.9-4.5"/><path class="st5" d="M60.9 70.3L36.1 82.5l4.8 4.6c.5-.2 1.1-.4 1.7-.9l21.2-15.8c-.3 0-.6.1-.8.1h-.2l-1.9-.2"/><path class="st6" d="M30.8 78.4c-.5.1-1 .2-1.4.2h-.6l.9 1.8s1.4 2.8 4.2 2.8h.5l-3.6-4.8M83.1 56l-4.7 3.5c.2.8.2 1.5.2 2.1l1.8-.9c-.1 0 3.1-1.6 2.7-4.7M11.7 28.8l-1.7.8s-3.1 1.6-2.8 4.7l4.7-3.5c-.2-.8-.2-1.4-.2-2M56.6 7.2h-.5l3.5 4.7c.5-.1 1-.2 1.4-.2h.6l-.9-1.7s-1.4-2.8-4.1-2.8"/><path class="st7" d="M31.6 78.2l-.6.2c-.1 0-.1 0-.2.1l3.5 4.7c.5-.1 1.1-.2 1.8-.6h.1l-4.6-4.4m50.9-24l-4.3 4.5.2.6c0 .1 0 .1.1.2l4.7-3.5c-.2-.5-.4-1.1-.7-1.8M11.9 30.8l-4.7 3.5c.1.5.2 1.1.6 1.8v.1l4.3-4.5-.1-.7c-.1 0-.1-.1-.1-.2M56 7.2c-.5.1-1.1.2-1.8.6h-.1l4.5 4.3.6-.2c.1 0 .1 0 .2-.1L56 7.2"/><path class="st8" d="M60.6 70.3c-.9.5-1.8.6-2.5.6s-1.2-.1-1.2-.1h-.1l-25.1 7.4 4.5 4.3 24.7-12.2h-.3M12.1 31.6l-4.3 4.5L20 60.9v-.3c-1-1.7-.5-3.7-.5-3.7v-.1l-7.4-25.2m58.2-2.2v.3c1 1.7.5 3.7.5 3.7v.1l7.4 25.1 4.3-4.5-12.2-24.7M54.2 7.8L29.4 20h.3c.9-.5 1.8-.6 2.5-.6s1.2.1 1.2.1h.1l25.1-7.4-4.4-4.3"/><path class="st9" d="M61.6 11.7l2.6 5.3h.1c.7 0 1.2.1 1.7.3l-.6-2.1c-.1 0-1-3.1-3.8-3.5"/><path class="st10" d="M60.9 11.7c-.4 0-.9.1-1.4.2l2.5 3.3 1.9 1.8h.3l-2.6-5.3h-.7"/><path class="st11" d="M62 15.2l1.4 1.8h.5L62 15.2"/><path class="st12" d="M59.5 11.9c-.1 0-.1 0-.2.1l-.6.2 3.3 3.1-2.5-3.4"/><path class="st13" d="M58.7 12.1l-25.1 7.5 1.8.4 28-2.9-1.4-1.9z"/><path class="st9" d="M17.3 24.4l-2.1.6s-3.1.9-3.5 3.7l5.3-2.6c0-.6.1-1.2.3-1.7"/><path class="st10" d="M17 26.2l-5.3 2.6c-.1.6 0 1.3.2 2.1l3.3-2.5 1.8-1.9v-.3"/><path class="st11" d="M17 26.5l-1.8 1.9 1.9-1.4v-.2c-.1-.1-.1-.2-.1-.3"/><path class="st12" d="M15.2 28.4l-3.3 2.5c0 .1 0 .1.1.2l.2.6 3-3.3"/><path class="st13" d="M17.1 27l-1.9 1.4-3.1 3.2 7.5 25.1.4-1.8z"/><path class="st9" d="M78.6 61.6l-5.3 2.6c0 .7-.1 1.3-.3 1.8l2.1-.6c0-.1 3.1-1 3.5-3.8"/><path class="st10" d="M78.4 59.5L75.1 62l-1.8 1.9v.3l5.3-2.6c.1-.6 0-1.3-.2-2.1"/><path class="st11" d="M75.1 62l-1.8 1.4v.5l1.8-1.9"/><path class="st12" d="M78.2 58.7L75.1 62l3.3-2.5c0-.1 0-.1-.1-.2l-.1-.6"/><path class="st13" d="M70.8 33.6l-.5 1.8 3 28 1.8-1.4 3.1-3.3z"/><path class="st9" d="M24.4 73l.6 2.1s.9 3.1 3.7 3.5l-2.6-5.3H26c-.6 0-1.1-.1-1.6-.3"/><path class="st10" d="M26.5 73.3h-.3l2.6 5.3h.6c.4 0 .9-.1 1.4-.2l-2.5-3.3-1.8-1.8"/><path class="st11" d="M27 73.3h-.5l1.9 1.8-1.4-1.8"/><path class="st12" d="M28.3 75.1l2.5 3.3c.1 0 .1 0 .2-.1l.6-.2-3.3-3"/><path class="st13" d="M54.9 70.3l-27.9 3 1.3 1.8 3.3 3.1 25.1-7.4z"/><path class="st14" d="M65.9 17.3l.7 2.3 2.3 2.1v-.4c-.1.1-.4-3-3-4"/><path class="st15" d="M66.6 19.6l.9 2.9c.7.2 1.2.6 1.6 1l-.2-1.8-2.3-2.1"/><path class="st14" d="M21.8 21.4h-.4s-3.1.3-4 2.9l2.3-.7 2.1-2.2"/><path class="st15" d="M23.6 21.3l-1.8.2-2.2 2.3 2.9-.9c.3-.7.7-1.2 1.1-1.6"/><path class="st14" d="M73 65.9l-2.3.7-2.1 2.3h.4c0-.1 3-.4 4-3"/><path class="st15" d="M70.7 66.6l-2.9.9c-.2.7-.6 1.2-1 1.6l1.8-.2 2.1-2.3"/><path class="st14" d="M21.4 68.5v.4s.3 3.1 2.9 4l-.7-2.3-2.2-2.1"/><path class="st15" d="M21.3 66.8l.2 1.8 2.3 2.1-.9-2.9c-.7-.3-1.2-.6-1.6-1"/><path class="st16" d="M64.2 17l.2.5 2.2 2.1-.7-2.3c-.5-.2-1-.3-1.7-.3"/><path class="st17" d="M64.4 17.5l1.4 2.8 1.7 2.2-.9-2.9-2.2-2.1"/><path class="st18" d="M65.8 20.3l1 2c.2 0 .4.1.7.2l-1.7-2.2M64.2 17h-.3l.5.5-.2-.5"/><path class="st19" d="M63.9 17h-.5l2.4 3.3-1.4-2.8-.5-.5"/><path class="st20" d="M63.4 17.1l-28 2.9 2.2.5 28.3 1.7c.3 0 .6.1.9.1l-1-2.1-2.4-3.1"/><path class="st16" d="M19.6 23.7l-2.3.7c-.2.5-.3 1.1-.3 1.8l.5-.3 2.1-2.2"/><path class="st17" d="M22.6 22.8l-2.9.9-2.1 2.2 2.8-1.4 2.2-1.7c0 .1 0 0 0 0"/><path class="st18" d="M22.6 22.9l-2.2 1.6 2-1c0-.2.1-.4.2-.6M17.6 25.9l-.6.3v.3l.6-.6"/><path class="st19" d="M20.4 24.5l-2.8 1.4-.6.6v.5l3.4-2.5"/><path class="st20" d="M22.4 23.5l-2 1-3.3 2.5L20 54.9l.5-2.2 1.7-28.3c.1-.3.1-.6.2-.9"/><path class="st16" d="M73.3 64.2l-.5.3-2.1 2.2L73 66c.2-.6.3-1.2.3-1.8"/><path class="st17" d="M72.8 64.4L70 65.8l-2.2 1.7 2.9-.9 2.1-2.2"/><path class="st18" d="M70 65.8l-2 1c0 .2-.1.4-.2.7l2.2-1.7M73.3 63.9l-.5.6.5-.3v-.3"/><path class="st19" d="M73.3 63.4L70 65.8l2.8-1.4.5-.6v-.4"/><path class="st20" d="M70.3 35.4l-.5 2.2-1.7 28.3c0 .3-.1.6-.1.9l2-1 3.3-2.4-3-28"/><path class="st16" d="M23.7 70.7l.7 2.3c.5.2 1 .3 1.7.3h.1l-.3-.5-2.2-2.1"/><path class="st17" d="M22.8 67.8l.9 2.9 2.2 2.1-1.4-2.8-1.7-2.2c.1 0 .1 0 0 0"/><path class="st18" d="M22.9 67.8l1.6 2.2-1-2c-.2-.1-.4-.2-.6-.2M25.9 72.8l.3.5h.3l-.6-.5"/><path class="st19" d="M24.5 70l1.4 2.8.6.5h.5L24.5 70"/><path class="st20" d="M23.5 67.9l1 2 2.5 3.3 27.9-2.9-2.2-.5-28.3-1.7c-.3-.1-.6-.1-.9-.2"/><path class="st21" d="M26.5 20c-.8.1-2 .4-2.9 1.3l1.3-.1 1.6-1.2"/><path class="st22" d="M27.2 19.9h-.7L25 21.1l3-.3 1.5-.8-2.1-.1h-.2"/><path class="st23" d="M29.4 20l-1.5.8 1-.1c.3-.3.5-.5.8-.6l-.3-.1"/><path class="st24" d="M24.9 21.1l-1.3.1c-.4.4-.8.9-1 1.6h.1l2.2-1.7"/><path class="st25" d="M27.9 20.8l-3 .3-2.3 1.7 2.9-.8z"/><path class="st26" d="M28.9 20.7l-1 .1-2.4 1.2 3.1-.9c.1-.2.2-.3.3-.4"/><path class="st27" d="M22.6 22.8s0 .1 0 0"/><path class="st28" d="M25.5 22l-2.9.9h-.1c-.1.2-.1.4-.2.6l3.2-1.5"/><path class="st29" d="M28.6 21.1l-3.1.9-3.1 1.5c-.1.3-.1.6-.1.9l-1.7 28.3.6-2.3c-.7-2.1.7-4.2.7-4.2l.5-.7 5.4-22.4c.1-.9.4-1.5.8-2"/><path class="st21" d="M69.1 23.6l.1 1.3 1.2 1.6c-.1-.8-.4-2-1.3-2.9"/><path class="st22" d="M69.2 24.9l.3 3 .8 1.6.1-2.1v-.9l-1.2-1.6"/><path class="st23" d="M69.5 27.9l.1 1c.3.3.5.5.6.8v-.3l-.7-1.5"/><path class="st24" d="M67.5 22.6l1.7 2.3-.1-1.3c-.4-.4-.9-.8-1.6-1"/><path class="st25" d="M67.5 22.6l.9 2.9 1.1 2.4-.3-3z"/><path class="st26" d="M68.4 25.5l.9 3c.1.1.3.2.4.3l-.1-1-1.2-2.3"/><path class="st27" d="M67.5 22.6"/><path class="st28" d="M66.8 22.4l1.6 3.2-.9-2.9c-.2-.2-.5-.3-.7-.3"/><path class="st29" d="M37.6 20.5l2.3.6c.4-.1.8-.2 1.2-.2 1.6 0 2.9.9 2.9.9l.7.5 22.5 5.4c.9.2 1.5.5 2 .9l-.9-3-1.6-3.2c-.3-.1-.6-.1-.9-.1l-28.2-1.8"/><path class="st21" d="M66.8 69.1l-1.3.1-1.6 1.2c.8-.1 1.9-.4 2.9-1.3"/><path class="st22" d="M65.4 69.2l-3 .3-1.6.8 2.1.1h.2c.2 0 .4 0 .8-.1l1.5-1.1"/><path class="st23" d="M62.4 69.5l-1 .1c-.3.3-.5.5-.8.6h.3l1.5-.7"/><path class="st24" d="M67.8 67.5l-2.3 1.7 1.3-.1c.4-.4.7-.9 1-1.6"/><path class="st25" d="M67.7 67.5l-2.9.9-2.4 1.1 3-.3z"/><path class="st26" d="M64.8 68.4l-3 .9c-.1.1-.2.3-.3.4l1-.1 2.3-1.2"/><path class="st27" d="M67.8 67.5"/><path class="st28" d="M67.9 66.8l-3.2 1.6 2.9-.9h.1c.1-.2.2-.5.2-.7"/><path class="st29" d="M69.8 37.6l-.6 2.3c.7 2.1-.7 4.2-.7 4.2l-.5.7-5.4 22.5c-.2.9-.5 1.5-.9 2l3-.9 3.2-1.6c.1-.3.1-.6.1-.9l1.8-28.3"/><path class="st21" d="M20 63.9c.1.8.4 2 1.3 2.9l-.1-1.3-1.2-1.6"/><path class="st22" d="M20 60.9l-.1 2.1v.9l1.2 1.6-.3-3-.8-1.6"/><path class="st23" d="M20.1 60.6v.3l.8 1.6-.1-1c-.4-.3-.6-.6-.7-.9"/><path class="st24" d="M21.1 65.4l.1 1.3c.4.4.9.8 1.6 1v-.1l-1.7-2.2"/><path class="st25" d="M20.8 62.4l.3 3 1.7 2.3-.8-2.9z"/><path class="st26" d="M20.7 61.4l.1 1 1.2 2.3-.9-3c-.2-.1-.3-.2-.4-.3"/><path class="st27" d="M22.8 67.7c.1.1.1.1 0 0"/><path class="st28" d="M22 64.8l.9 2.9v.1c.2.1.4.1.6.2L22 64.8"/><path class="st29" d="M21.1 61.7l.9 3 1.6 3.2c.3.1.6.1.9.1l28.3 1.7-2.3-.6c-.4.1-.8.2-1.2.2-1.6 0-2.9-.9-2.9-.9l-.7-.5-22.5-5.4c-1 0-1.6-.4-2.1-.8"/><path class="st30" d="M32.3 19.4c-.7 0-1.7.1-2.5.6l1.9.1 2-.6h-.1c-.1 0-.6-.1-1.3-.1"/><path class="st31" d="M33.6 19.6l-2 .6 1.4.1 2.4-.3z"/><path class="st32" d="M35.4 20l-2.4.3 4.6.2z"/><path class="st30" d="M70.3 29.7l-.1 1.9.6 2v-.1s.5-2.1-.5-3.8"/><path class="st31" d="M70.2 31.6l-.1 1.5.2 2.3.5-1.8z"/><path class="st32" d="M70.1 33.1l-.3 4.5.5-2.2z"/><path class="st30" d="M19.6 56.7v.1s-.5 2 .5 3.7l.1-1.9-.6-1.9"/><path class="st31" d="M20 54.9l-.4 1.8.6 2 .1-1.5z"/><path class="st32" d="M20.5 52.7l-.5 2.2.3 2.3z"/><path class="st30" d="M58.7 70.2l-2 .6h.1s.5.1 1.2.1 1.7-.1 2.5-.6l-1.8-.1"/><path class="st31" d="M57.2 70.1l-2.3.2 1.8.5 2-.6z"/><path class="st32" d="M52.7 69.8l2.2.5 2.3-.2z"/><path class="st33" d="M61.4 69.6l-1.4.2-1.3.4 1.9.1c.3-.2.6-.4.8-.7M20.2 58.7l-.1 1.9c.2.3.4.6.6.8l-.1-1.4-.4-1.3m49.4-29.8l.1 1.4.4 1.3.1-1.9c-.1-.3-.3-.5-.6-.8m-39.9-8.8c-.3.2-.6.4-.8.6l1.4-.1 1.3-.4-1.9-.1"/><path class="st34" d="M60 69.8l-2.8.3 1.5.1 1.3-.4zM20.3 57.2l-.1 1.5.4 1.3-.3-2.8m49.5-26.9l.3 2.8.1-1.5-.4-1.3M31.6 20.2l-1.3.4 2.7-.3-1.4-.1"/><path class="st35" d="M61.7 69.3l-1.7.5 1.4-.1c.1-.2.2-.3.3-.4M20.6 60l.1 1.4c.1.1.2.2.4.3l-.5-1.7m48.7-31.4l.5 1.7-.1-1.4c-.2-.1-.3-.2-.4-.3m-39-8.1l-1.4.1c-.1.1-.2.2-.3.4l1.7-.5"/><path class="st36" d="M21.1 50.4l-.6 2.3-.3 4.5.3 2.8.5 1.7c.5.4 1.2.7 2 .9L45.5 68 23.1 52.9c-1.1-.8-1.7-1.6-2-2.5m47-5.6L52.9 67.2c-.8 1.2-1.7 1.7-2.5 2l2.3.6 4.5.3 2.8-.3 1.7-.5c.4-.5.7-1.2.9-2l5.5-22.5M44.8 22.3l22.5 15.1c1.1.8 1.7 1.7 2 2.5l.6-2.3.3-4.5-.3-2.8-.5-1.7c-.5-.4-1.2-.7-2-.9l-22.6-5.4m-11.8-2l-2.7.3-1.7.5c-.4.5-.7 1.2-.9 2l-5.4 22.4 15.1-22.4c.8-1.2 1.7-1.7 2.5-2l-2.3-.6-4.6-.2"/><path class="st37" d="M22.3 45.5l-.5.7s-1.4 2-.7 4.2l1.2-4.9M41.1 20.9c-.4 0-.8.1-1.2.2l4.8 1.2-.7-.5c.1 0-1.2-.9-2.9-.9M69.2 39.9L68 44.8l.5-.7s1.4-2 .7-4.2M45.6 68.1l.7.5s1.3.9 2.9.9c.4 0 .8-.1 1.2-.2l-4.8-1.2"/><path class="st38" d="M51.6 65.3c-1.2 0-2.1-.4-2.1-.4L28 55.8c-4.4-1.9-2.6-6.3-2.6-6.3L34.5 28c1-2.4 2.8-2.9 4.2-2.9 1.2 0 2.1.4 2.1.4l21.5 9.1c4.4 1.9 2.6 6.3 2.6 6.3l-9.1 21.5c-1 2.4-2.8 2.9-4.2 2.9M39.9 21.1c-.9.3-1.7.9-2.5 2L22.3 45.5l-1.2 4.9c.3.9.9 1.7 2 2.5L45.6 68l4.8 1.2c.9-.3 1.7-.9 2.5-2L68 44.8l1.2-4.9c-.3-.9-.9-1.7-2-2.5L44.8 22.3l-4.9-1.2"/><path class="st39" d="M38.7 25c-1.4 0-3.2.6-4.2 2.9l-9.1 21.5s-1.9 4.4 2.6 6.3l21.5 9.1s.9.4 2.1.4c1.4 0 3.2-.6 4.2-3l9.1-21.5s1.9-4.4-2.6-6.3l-21.5-9.1c.1.1-.9-.3-2.1-.3"/></svg>